<svg xmlns="http://www.w3.org/2000/svg" fill="none" viewBox="-0.715 -0.715 20 20" height="20" width="20"><g id="smiley-in-love"><path id="Vector" stroke="#000" stroke-linecap="round" stroke-linejoin="round" d="M17.906785714285714 9.285c0 4.761745928571429 -3.8600397857142856 8.621785714285714 -8.621785714285714 8.621785714285714C4.523320392857143 17.906785714285714 0.6632142857142858 14.04674592857143 0.6632142857142858 9.285" stroke-width="1.43"></path><path id="Vector_2" stroke="#000" stroke-linecap="round" stroke-linejoin="round" d="M7.295357142857143 0.89392266C7.934059028571428 0.7430506950000001 8.600204721428572 0.6632142857142858 9.285 0.6632142857142858s1.3509409714285716 0.0798364092857143 1.9896428571428573 0.2307083742857143" stroke-width="1.43"></path><path id="Vector_3" stroke="#000" stroke-linecap="round" stroke-linejoin="round" d="M4.701300578571429 4.0923106928571436c-1.316016107142857 -1.6147278214285714 -2.7055163571428573 -0.46739363571428577 -2.7238078071428573 0.7694081571428573 0 1.841268557142857 2.2030519500000003 3.352561478571429 2.7238078071428573 3.352561478571429 0.5207558571428572 0 2.7238078071428573 -1.5112929214285715 2.7238078071428573 -3.352561478571429 -0.01829145 -1.2368017928571429 -1.4077917 -2.3841359785714284 -2.7238078071428573 -0.7694081571428573Z" stroke-width="1.43"></path><path id="Vector_4" stroke="#000" stroke-linecap="round" stroke-linejoin="round" d="M13.867943357142858 4.0923106928571436c1.3159497857142857 -1.6147278214285714 2.7055163571428573 -0.46739363571428577 2.7236884285714287 0.7694081571428573 0 1.841268557142857 -2.2029325714285717 3.352561478571429 -2.7236884285714287 3.352561478571429 -0.5207558571428572 0 -2.7238608642857143 -1.5112929214285715 -2.7238608642857143 -3.352561478571429 0.01829145 -1.2368017928571429 1.4077917 -2.3841359785714284 2.7238608642857143 -0.7694081571428573Z" stroke-width="1.43"></path><path id="Vector_5" stroke="#000" stroke-linecap="round" stroke-linejoin="round" d="M4.9077193928571425 10.611428571428572c0.6632142857142858 2.387571428571429 3.316071428571429 3.8466428571428573 5.7036428571428575 3.1834285714285717 1.4590714285714288 -0.5305714285714286 2.652857142857143 -1.724357142857143 3.050852035714286 -3.1834285714285717" stroke-width="1.43"></path></g></svg>